<?xml version="1.0" encoding="UTF-8" standalone="no"?>
<svg
   xmlns:dc="http://purl.org/dc/elements/1.1/"
   xmlns:cc="http://creativecommons.org/ns#"
   xmlns:rdf="http://www.w3.org/1999/02/22-rdf-syntax-ns#"
   xmlns:svg="http://www.w3.org/2000/svg"
   xmlns="http://www.w3.org/2000/svg"
   xmlns:sodipodi="http://sodipodi.sourceforge.net/DTD/sodipodi-0.dtd"
   xmlns:inkscape="http://www.inkscape.org/namespaces/inkscape"
   inkscape:export-ydpi="576"
   inkscape:export-xdpi="576"
   inkscape:export-filename="C:\Users\RainBoyz\Desktop\DONE\Filedline [Done!]\5 - Volcano.png"
   sodipodi:docname="Template Export.svg"
   inkscape:version="1.0 (4035a4fb49, 2020-05-01)"
   id="svg831"
   version="1.1"
   viewBox="0 0 22.577778 22.577778"
   height="64pt"
   width="64pt">
  <defs
     id="defs825">
    <pattern
       y="0"
       x="0"
       height="6"
       width="6"
       patternUnits="userSpaceOnUse"
       id="EMFhbasepattern" />
    <pattern
       y="0"
       x="0"
       height="6"
       width="6"
       patternUnits="userSpaceOnUse"
       id="EMFhbasepattern-9" />
    <pattern
       y="0"
       x="0"
       height="6"
       width="6"
       patternUnits="userSpaceOnUse"
       id="EMFhbasepattern-0" />
    <pattern
       y="0"
       x="0"
       height="6"
       width="6"
       patternUnits="userSpaceOnUse"
       id="EMFhbasepattern-7" />
    <pattern
       y="0"
       x="0"
       height="6"
       width="6"
       patternUnits="userSpaceOnUse"
       id="EMFhbasepattern-2" />
    <pattern
       y="0"
       x="0"
       height="6"
       width="6"
       patternUnits="userSpaceOnUse"
       id="EMFhbasepattern-98" />
    <pattern
       y="0"
       x="0"
       height="6"
       width="6"
       patternUnits="userSpaceOnUse"
       id="EMFhbasepattern-6" />
    <pattern
       y="0"
       x="0"
       height="6"
       width="6"
       patternUnits="userSpaceOnUse"
       id="EMFhbasepattern-01" />
    <pattern
       y="0"
       x="0"
       height="6"
       width="6"
       patternUnits="userSpaceOnUse"
       id="EMFhbasepattern-07" />
    <pattern
       y="0"
       x="0"
       height="6"
       width="6"
       patternUnits="userSpaceOnUse"
       id="EMFhbasepattern-8" />
    <pattern
       y="0"
       x="0"
       height="6"
       width="6"
       patternUnits="userSpaceOnUse"
       id="EMFhbasepattern-4" />
    <pattern
       y="0"
       x="0"
       height="6"
       width="6"
       patternUnits="userSpaceOnUse"
       id="EMFhbasepattern-40" />
    <pattern
       y="0"
       x="0"
       height="6"
       width="6"
       patternUnits="userSpaceOnUse"
       id="EMFhbasepattern-08" />
    <pattern
       y="0"
       x="0"
       height="6"
       width="6"
       patternUnits="userSpaceOnUse"
       id="EMFhbasepattern-04" />
    <pattern
       y="0"
       x="0"
       height="6"
       width="6"
       patternUnits="userSpaceOnUse"
       id="EMFhbasepattern-014" />
    <pattern
       y="0"
       x="0"
       height="6"
       width="6"
       patternUnits="userSpaceOnUse"
       id="EMFhbasepattern-27" />
    <pattern
       y="0"
       x="0"
       height="6"
       width="6"
       patternUnits="userSpaceOnUse"
       id="EMFhbasepattern-09" />
    <pattern
       y="0"
       x="0"
       height="6"
       width="6"
       patternUnits="userSpaceOnUse"
       id="EMFhbasepattern-5" />
    <pattern
       y="0"
       x="0"
       height="6"
       width="6"
       patternUnits="userSpaceOnUse"
       id="EMFhbasepattern-018" />
  </defs>
  <sodipodi:namedview
     inkscape:document-rotation="0"
     inkscape:snap-global="true"
     inkscape:snap-nodes="false"
     inkscape:bbox-nodes="true"
     inkscape:snap-bbox="true"
     showguides="true"
     inkscape:snap-midpoints="true"
     inkscape:snap-smooth-nodes="true"
     inkscape:snap-intersection-paths="true"
     inkscape:object-paths="true"
     inkscape:showpageshadow="false"
     inkscape:pagecheckerboard="true"
     inkscape:window-maximized="1"
     inkscape:window-y="-8"
     inkscape:window-x="-8"
     inkscape:window-height="715"
     inkscape:window-width="1366"
     units="pt"
     showgrid="false"
     inkscape:current-layer="g724"
     inkscape:document-units="pt"
     inkscape:cy="42.778201"
     inkscape:cx="-4.2778197"
     inkscape:zoom="4.4415145"
     inkscape:pageshadow="2"
     inkscape:pageopacity="0.0"
     borderopacity="1.0"
     bordercolor="#666666"
     pagecolor="#ffffff"
     id="base">
    <inkscape:grid
       id="grid1378"
       type="xygrid" />
    <sodipodi:guide
       inkscape:locked="false"
       id="guide1380"
       orientation="78.000048,0"
       position="0.97013831,21.607643" />
    <sodipodi:guide
       inkscape:locked="false"
       id="guide1382"
       orientation="0,78.000005"
       position="0.97013831,0.97013129" />
    <sodipodi:guide
       inkscape:locked="false"
       id="guide1384"
       orientation="-78.000048,0"
       position="21.607639,0.97013129" />
    <sodipodi:guide
       inkscape:locked="false"
       id="guide1386"
       orientation="0,-78.000005"
       position="21.607639,21.607643" />
  </sodipodi:namedview>
  <metadata
     id="metadata828">
    <rdf:RDF>
      <cc:Work
         rdf:about="">
        <dc:format>image/svg+xml</dc:format>
        <dc:type
           rdf:resource="http://purl.org/dc/dcmitype/StillImage" />
        <dc:title></dc:title>
      </cc:Work>
    </rdf:RDF>
  </metadata>
  <g
     transform="translate(0,-274.42223)"
     id="layer1"
     inkscape:groupmode="layer"
     inkscape:label="Icon">
    <g
       transform="matrix(1.2580549,0,0,1.2580549,77.385914,-38.905126)"
       style="display:inline"
       id="g724">
      <g
         transform="matrix(0.94370174,0,0,0.94370174,-118.16148,14.988394)"
         id="g1819">
        <path
           id="path2085"
           d="m 67.244141,249.90822 c -0.381471,0.38771 -0.617188,0.92204 -0.617188,1.50782 0,0.46467 0.212838,0.85924 0.464844,1.21093 -0.413424,0.27209 -0.787462,0.62196 -0.9375,1.10547 -0.05631,0.18397 0.09631,0.36463 0.287109,0.33985 0.05669,-0.007 0.120006,-0.01 0.185547,-0.01 0.224437,0 0.437007,0.0451 0.630859,0.12695 0.0064,0.002 0.01295,0.004 0.01953,0.006 1.473112,0.49465 3.191794,0.44923 4.398437,-0.002 0.0039,-0.001 0.0078,-0.003 0.01172,-0.004 0.193796,-0.0819 0.406389,-0.1289 0.630859,-0.1289 0.05822,0 0.114175,0.005 0.179688,0.0117 0.188065,0.021 0.336783,-0.1564 0.283203,-0.33789 -0.141231,-0.48547 -0.516502,-0.8332 -0.929688,-1.10547 0.252907,-0.35205 0.466797,-0.74731 0.466797,-1.21289 0,-0.58608 -0.237329,-1.12006 -0.61914,-1.50782 0,0 -0.802059,-1.04757 -2.227538,-1.05821 -1.425479,-0.0106 -2.227539,1.05846 -2.227539,1.05846 z"
           style="color:#000000;font-style:normal;font-variant:normal;font-weight:normal;font-stretch:normal;font-size:medium;line-height:normal;font-family:sans-serif;font-variant-ligatures:normal;font-variant-position:normal;font-variant-caps:normal;font-variant-numeric:normal;font-variant-alternates:normal;font-variant-east-asian:normal;font-feature-settings:normal;font-variation-settings:normal;text-indent:0;text-align:start;text-decoration:none;text-decoration-line:none;text-decoration-style:solid;text-decoration-color:#000000;letter-spacing:normal;word-spacing:normal;text-transform:none;writing-mode:lr-tb;direction:ltr;text-orientation:mixed;dominant-baseline:auto;baseline-shift:baseline;text-anchor:start;white-space:normal;shape-padding:0;shape-margin:0;inline-size:0;clip-rule:nonzero;display:inline;overflow:visible;visibility:visible;isolation:auto;mix-blend-mode:normal;color-interpolation:sRGB;color-interpolation-filters:linearRGB;solid-color:#000000;solid-opacity:1;vector-effect:none;fill:#d0e2ed;fill-opacity:1;fill-rule:nonzero;stroke:none;stroke-width:0.529168;stroke-linecap:round;stroke-linejoin:round;stroke-miterlimit:4;stroke-dasharray:none;stroke-dashoffset:0;stroke-opacity:1;color-rendering:auto;image-rendering:auto;shape-rendering:auto;text-rendering:auto;enable-background:accumulate;stop-color:#000000"
           sodipodi:nodetypes="cscccsccccscccsczc" />
        <path
           id="path664"
           style="color:#000000;font-style:normal;font-variant:normal;font-weight:normal;font-stretch:normal;font-size:medium;line-height:normal;font-family:sans-serif;font-variant-ligatures:normal;font-variant-position:normal;font-variant-caps:normal;font-variant-numeric:normal;font-variant-alternates:normal;font-variant-east-asian:normal;font-feature-settings:normal;font-variation-settings:normal;text-indent:0;text-align:start;text-decoration:none;text-decoration-line:none;text-decoration-style:solid;text-decoration-color:#000000;letter-spacing:normal;word-spacing:normal;text-transform:none;writing-mode:lr-tb;direction:ltr;text-orientation:mixed;dominant-baseline:auto;baseline-shift:baseline;text-anchor:start;white-space:normal;shape-padding:0;shape-margin:0;inline-size:0;clip-rule:nonzero;display:inline;overflow:visible;visibility:visible;isolation:auto;mix-blend-mode:normal;color-interpolation:sRGB;color-interpolation-filters:linearRGB;solid-color:#000000;solid-opacity:1;vector-effect:none;fill:#aabfd0;fill-opacity:1;fill-rule:nonzero;stroke:none;stroke-width:0.529169;stroke-linecap:round;stroke-linejoin:round;stroke-miterlimit:4;stroke-dasharray:none;stroke-dashoffset:0;stroke-opacity:1;color-rendering:auto;image-rendering:auto;shape-rendering:auto;text-rendering:auto;enable-background:accumulate;stop-color:#000000"
           d="m 71.929463,252.5102 c -0.155956,0.0287 -0.307041,0.0728 -0.44907,0.13281 l 0.0098,-0.004 c -1.055288,0.39459 -2.693082,0.44749 -4.032829,10e-4 -0.139748,-0.0584 -0.28815,-0.10096 -0.441317,-0.12867 0.02566,0.0383 0.04921,0.0784 0.07596,0.11575 -0.413424,0.27209 -0.787889,0.62185 -0.937926,1.10536 a 0.26461046,0.26461046 0 0 0 0.287321,0.34003 c 0.05669,-0.007 0.119978,-0.0103 0.185518,-0.0103 0.224438,0 0.437118,0.0453 0.630968,0.12712 a 0.26461046,0.26461046 0 0 0 0.01963,0.006 c 1.473113,0.49465 3.191539,0.44917 4.398182,-0.002 a 0.26461046,0.26461046 0 0 0 0.01188,-0.004 c 0.193797,-0.0819 0.4065,-0.12867 0.63097,-0.12867 0.05822,0 0.113803,0.005 0.179316,0.0114 a 0.26461046,0.26461046 0 0 0 0.283187,-0.33797 c -0.14123,-0.48547 -0.516472,-0.83308 -0.929659,-1.10535 0.02746,-0.0382 0.05171,-0.0791 0.07803,-0.11834 z" />
        <path
           id="path2042"
           d="m 66.923828,259.7207 a 0.26460996,0.26460996 0 0 0 -0.195312,0.0977 l -1.738282,2.12695 -1.363281,0.0332 a 0.26460996,0.26460996 0 0 0 -0.226562,0.13671 l -1.466797,2.6875 c -0.345555,0.63351 0.127985,1.42969 0.849609,1.42969 h 13.509766 c 0.721621,0 1.193207,-0.79618 0.847656,-1.42969 l -1.580078,-2.89648 a 0.26460996,0.26460996 0 0 0 -0.236328,-0.13867 l -7.851563,0.15039 -0.277344,-1.96875 a 0.26460996,0.26460996 0 0 0 -0.271484,-0.22852 z"
           style="color:#000000;font-style:normal;font-variant:normal;font-weight:normal;font-stretch:normal;font-size:medium;line-height:normal;font-family:sans-serif;font-variant-ligatures:normal;font-variant-position:normal;font-variant-caps:normal;font-variant-numeric:normal;font-variant-alternates:normal;font-variant-east-asian:normal;font-feature-settings:normal;font-variation-settings:normal;text-indent:0;text-align:start;text-decoration:none;text-decoration-line:none;text-decoration-style:solid;text-decoration-color:#000000;letter-spacing:normal;word-spacing:normal;text-transform:none;writing-mode:lr-tb;direction:ltr;text-orientation:mixed;dominant-baseline:auto;baseline-shift:baseline;text-anchor:start;white-space:normal;shape-padding:0;shape-margin:0;inline-size:0;clip-rule:nonzero;display:inline;overflow:visible;visibility:visible;isolation:auto;mix-blend-mode:normal;color-interpolation:sRGB;color-interpolation-filters:linearRGB;solid-color:#000000;solid-opacity:1;vector-effect:none;fill:#99605e;fill-opacity:1;fill-rule:nonzero;stroke:none;stroke-width:0.529167;stroke-linecap:round;stroke-linejoin:round;stroke-miterlimit:4;stroke-dasharray:none;stroke-dashoffset:0;stroke-opacity:1;color-rendering:auto;image-rendering:auto;shape-rendering:auto;text-rendering:auto;enable-background:accumulate;stop-color:#000000" />
        <path
           id="path2071"
           d="m 72.318359,253.53125 c -0.296067,0 -0.580555,0.0611 -0.83789,0.16992 l 0.0098,-0.004 c -1.058318,0.39572 -2.703054,0.44862 -4.044922,-0.002 l 0.01953,0.006 c -0.257279,-0.10871 -0.54179,-0.16797 -0.837891,-0.16797 -0.415739,0 -0.805288,0.11888 -1.134765,0.32422 a 0.26461046,0.26461046 0 0 0 -0.01172,0.006 c -0.696114,0.48403 -0.97528,1.10465 -0.976563,1.78516 a 0.26461046,0.26461046 0 0 0 0,0.0156 c 0.02896,0.50975 0.299555,1.00765 0.660156,1.44922 -0.201627,0.22449 -0.40039,0.46781 -0.40039,0.78516 0,0.33191 0.135685,0.63398 0.355469,0.84961 a 0.26461046,0.26461046 0 0 0 0.123047,0.0684 c 2.844681,0.68952 5.67451,0.74187 8.464843,0 a 0.26461046,0.26461046 0 0 0 0.117188,-0.0684 c 0.220636,-0.21585 0.357422,-0.5177 0.357422,-0.84961 0,-0.31295 -0.20637,-0.55144 -0.414063,-0.77149 0.365938,-0.43795 0.642336,-0.943 0.671875,-1.46289 a 0.26461046,0.26461046 0 0 0 0,-0.0254 c -0.03472,-0.97788 -0.506066,-1.50518 -0.992187,-1.78515 -0.328388,-0.20337 -0.715341,-0.32227 -1.128907,-0.32227 z"
           style="color:#000000;font-style:normal;font-variant:normal;font-weight:normal;font-stretch:normal;font-size:medium;line-height:normal;font-family:sans-serif;font-variant-ligatures:normal;font-variant-position:normal;font-variant-caps:normal;font-variant-numeric:normal;font-variant-alternates:normal;font-variant-east-asian:normal;font-feature-settings:normal;font-variation-settings:normal;text-indent:0;text-align:start;text-decoration:none;text-decoration-line:none;text-decoration-style:solid;text-decoration-color:#000000;letter-spacing:normal;word-spacing:normal;text-transform:none;writing-mode:lr-tb;direction:ltr;text-orientation:mixed;dominant-baseline:auto;baseline-shift:baseline;text-anchor:start;white-space:normal;shape-padding:0;shape-margin:0;inline-size:0;clip-rule:nonzero;display:inline;overflow:visible;visibility:visible;isolation:auto;mix-blend-mode:normal;color-interpolation:sRGB;color-interpolation-filters:linearRGB;solid-color:#000000;solid-opacity:1;vector-effect:none;fill:#d0e2ed;fill-opacity:1;fill-rule:nonzero;stroke:none;stroke-width:0.529168;stroke-linecap:round;stroke-linejoin:round;stroke-miterlimit:4;stroke-dasharray:none;stroke-dashoffset:0;stroke-opacity:1;color-rendering:auto;image-rendering:auto;shape-rendering:auto;text-rendering:auto;enable-background:accumulate;stop-color:#000000" />
        <path
           id="path2105"
           style="color:#000000;font-style:normal;font-variant:normal;font-weight:normal;font-stretch:normal;font-size:medium;line-height:normal;font-family:sans-serif;font-variant-ligatures:normal;font-variant-position:normal;font-variant-caps:normal;font-variant-numeric:normal;font-variant-alternates:normal;font-variant-east-asian:normal;font-feature-settings:normal;font-variation-settings:normal;text-indent:0;text-align:start;text-decoration:none;text-decoration-line:none;text-decoration-style:solid;text-decoration-color:#000000;letter-spacing:normal;word-spacing:normal;text-transform:none;writing-mode:lr-tb;direction:ltr;text-orientation:mixed;dominant-baseline:auto;baseline-shift:baseline;text-anchor:start;white-space:normal;shape-padding:0;shape-margin:0;inline-size:0;clip-rule:nonzero;display:inline;overflow:visible;visibility:visible;isolation:auto;mix-blend-mode:normal;color-interpolation:sRGB;color-interpolation-filters:linearRGB;solid-color:#000000;solid-opacity:1;vector-effect:none;fill:#aabfd0;fill-opacity:1;fill-rule:nonzero;stroke:none;stroke-width:0.546256;stroke-linecap:round;stroke-linejoin:round;stroke-miterlimit:4;stroke-dasharray:none;stroke-dashoffset:0;stroke-opacity:1;color-rendering:auto;image-rendering:auto;shape-rendering:auto;text-rendering:auto;enable-background:accumulate;stop-color:#000000"
           d="m 69.47173,248.84996 c 1.010904,0.33303 1.958718,1.32125 1.880505,2.61638 0,0.48062 -0.187479,1.02255 -0.448551,1.38596 0.353245,0.23277 0.643427,0.38655 0.827857,0.76274 0.01307,0.0266 0.02716,0.0526 0.03876,0.0801 0.268621,0.0521 0.52173,0.14902 0.746726,0.28836 0.0368,0.0212 0.07309,0.0468 0.109553,0.0708 0.120068,-0.0487 0.194969,-0.18335 0.154512,-0.32039 -0.01598,-0.055 -0.03566,-0.10765 -0.05736,-0.15916 -2.41e-4,-5.3e-4 -7.94e-4,-0.001 -0.0011,-0.002 -0.01349,-0.0319 -0.02946,-0.0624 -0.04496,-0.093 -0.01072,-0.0212 -0.0204,-0.0429 -0.03204,-0.0636 -0.01609,-0.0285 -0.03397,-0.0558 -0.05168,-0.0832 -0.01304,-0.0202 -0.0259,-0.0403 -0.03979,-0.0599 -0.01987,-0.0281 -0.04106,-0.0552 -0.06253,-0.0822 -0.01402,-0.0176 -0.02826,-0.0351 -0.04289,-0.0522 -0.02085,-0.0244 -0.04207,-0.0484 -0.06408,-0.0718 -0.01368,-0.0145 -0.02776,-0.0287 -0.04186,-0.0429 -0.06592,-0.0666 -0.135842,-0.1296 -0.20929,-0.18914 -0.09048,-0.0732 -0.18492,-0.14263 -0.282155,-0.2067 0.06323,-0.088 0.124217,-0.1785 0.179835,-0.27234 0.08343,-0.14076 0.155255,-0.28869 0.20619,-0.44493 0.03396,-0.10417 0.05863,-0.21191 0.07131,-0.32402 0.0063,-0.056 0.0098,-0.11336 0.0098,-0.17156 0,-0.21978 -0.03375,-0.43236 -0.0956,-0.63252 -0.08251,-0.26701 -0.215336,-0.51198 -0.387572,-0.72347 -0.04304,-0.0529 -0.0887,-0.10346 -0.136427,-0.15193 0,0 -0.801775,-1.04718 -2.227255,-1.05782 z"
           sodipodi:nodetypes="ccccccccscscccccccccsssssscc" />
        <path
           d="m 66.924083,259.72061 c -0.07614,0.003 -0.147325,0.0385 -0.195339,0.0977 l -1.738395,2.12701 -1.363223,0.0331 c -0.09468,0.002 -0.181189,0.054 -0.226859,0.13694 l -0.496612,0.90951 c 0.110333,0.19176 0.251774,0.37147 0.438216,0.52555 0.0079,0.007 0.204679,0.18666 0.488344,0.2775 0.303014,0.097 0.67636,0.11033 1.073835,-0.0119 0.467101,-0.14373 0.872858,-0.47538 1.283642,-0.88677 0.175046,0.18506 0.324813,0.3971 0.572058,0.4961 0.05407,0.03 0.124299,0.0764 0.27957,0.12144 0.210605,0.061 0.50443,0.0981 0.83199,0.0253 0.433054,-0.0963 0.634878,-0.33281 0.827857,-0.54312 0.0036,-0.004 0.0062,-0.008 0.0098,-0.0114 0.239419,0.13366 0.502336,0.24805 0.828374,0.24805 0.285708,0 0.501256,-0.12261 0.716751,-0.23875 0.0013,0.001 0.0024,0.002 0.0036,0.004 0.183943,0.20357 0.372443,0.44283 0.814419,0.54105 0.327538,0.0727 0.621424,0.0357 0.83199,-0.0253 0.155244,-0.045 0.225827,-0.0911 0.279569,-0.12092 0.247161,-0.099 0.397013,-0.31105 0.572059,-0.4961 0.410784,0.41139 0.816025,0.74304 1.283126,0.88677 0.397475,0.12223 0.771342,0.10837 1.074354,0.0114 0.140427,-0.0449 0.259498,-0.1116 0.345199,-0.16847 l 0.623734,1.1436 c 0.345551,0.63351 -0.125873,1.42937 -0.847495,1.42937 h 1.058333 c 0.721622,0 1.193046,-0.79586 0.847495,-1.42937 l -1.035597,-1.89911 -0.09043,-0.16588 -0.453721,-0.83147 c -0.04681,-0.0868 -0.138041,-0.14041 -0.236678,-0.13901 l -6.478931,-0.96163 -1.64977,-0.85686 c -0.0185,-0.13444 -0.135676,-0.23311 -0.271301,-0.22841 z"
           style="color:#000000;font-style:normal;font-variant:normal;font-weight:normal;font-stretch:normal;font-size:medium;line-height:normal;font-family:sans-serif;font-variant-ligatures:normal;font-variant-position:normal;font-variant-caps:normal;font-variant-numeric:normal;font-variant-alternates:normal;font-variant-east-asian:normal;font-feature-settings:normal;font-variation-settings:normal;text-indent:0;text-align:start;text-decoration:none;text-decoration-line:none;text-decoration-style:solid;text-decoration-color:#000000;letter-spacing:normal;word-spacing:normal;text-transform:none;writing-mode:lr-tb;direction:ltr;text-orientation:mixed;dominant-baseline:auto;baseline-shift:baseline;text-anchor:start;white-space:normal;shape-padding:0;shape-margin:0;inline-size:0;clip-rule:nonzero;display:inline;overflow:visible;visibility:visible;isolation:auto;mix-blend-mode:normal;color-interpolation:sRGB;color-interpolation-filters:linearRGB;solid-color:#000000;solid-opacity:1;vector-effect:none;fill:#67342d;fill-opacity:1;fill-rule:nonzero;stroke:none;stroke-width:0.529167;stroke-linecap:round;stroke-linejoin:round;stroke-miterlimit:4;stroke-dasharray:none;stroke-dashoffset:0;stroke-opacity:1;color-rendering:auto;image-rendering:auto;shape-rendering:auto;text-rendering:auto;enable-background:accumulate;stop-color:#000000"
           id="path2121"
           sodipodi:nodetypes="cccccccccccccccscccccccccccscccccccc" />
        <path
           id="path2028"
           d="m 73.654297,258.29492 c -0.02835,-10e-4 -0.0567,0.002 -0.08398,0.01 -2.698925,0.71757 -5.429777,0.67037 -8.203124,-0.002 -0.09806,-0.0237 -0.201082,0.0104 -0.265626,0.0879 0,0 -0.674896,0.80682 -1.1875,1.76368 -0.256301,0.47843 -0.477515,0.99475 -0.546874,1.49414 -0.06885,0.4957 0.03821,0.89143 0.445312,1.22349 0.01312,0.0118 0.09942,0.091 0.242188,0.13672 0.153093,0.049 0.371362,0.0648 0.632812,-0.0156 0.415889,-0.12797 0.97966,-0.48987 1.650391,-1.30553 0.02009,0.19752 0.06141,0.40953 0.167968,0.60742 0.105163,0.1953 0.292499,0.36307 0.535157,0.45703 0.02551,0.0154 0.292563,0.18542 0.669922,0.10157 0.282935,-0.0629 0.600425,-1.02373 0.910156,-1.43542 0.01047,0.0225 0.0014,0.0222 0.01367,0.0449 0.137257,0.2534 0.442331,0.53711 0.902343,0.53711 0.442995,0 0.710987,0.23767 0.820313,-0.0197 0.298422,0.38047 0.531733,0.62326 0.80402,0.68377 0.377359,0.0838 0.644415,-0.0862 0.669922,-0.10157 0.242657,-0.094 0.429993,-0.26173 0.535156,-0.45703 0.106559,-0.19789 0.147874,-0.4099 0.167969,-0.60742 0.67073,0.81566 1.281822,1.31952 1.69771,1.44749 0.26145,0.0804 0.456059,0.11192 0.609153,0.0629 0.142771,-0.0457 0.229069,-0.12494 0.242187,-0.13672 0.407098,-0.33206 0.346589,-0.72779 0.277741,-1.22349 -0.06936,-0.49939 -0.07568,-1.01571 -0.331983,-1.49414 -0.512604,-0.95686 -1.1875,-1.76368 -1.1875,-1.76368 -0.04658,-0.0565 -0.114455,-0.0911 -0.1875,-0.0957 z"
           style="color:#000000;font-style:normal;font-variant:normal;font-weight:normal;font-stretch:normal;font-size:medium;line-height:normal;font-family:sans-serif;font-variant-ligatures:normal;font-variant-position:normal;font-variant-caps:normal;font-variant-numeric:normal;font-variant-alternates:normal;font-variant-east-asian:normal;font-feature-settings:normal;font-variation-settings:normal;text-indent:0;text-align:start;text-decoration:none;text-decoration-line:none;text-decoration-style:solid;text-decoration-color:#000000;letter-spacing:normal;word-spacing:normal;text-transform:none;writing-mode:lr-tb;direction:ltr;text-orientation:mixed;dominant-baseline:auto;baseline-shift:baseline;text-anchor:start;white-space:normal;shape-padding:0;shape-margin:0;inline-size:0;clip-rule:nonzero;display:inline;overflow:visible;visibility:visible;isolation:auto;mix-blend-mode:normal;color-interpolation:sRGB;color-interpolation-filters:linearRGB;solid-color:#000000;solid-opacity:1;vector-effect:none;fill:#dc1c4b;fill-opacity:1;fill-rule:nonzero;stroke:none;stroke-width:0.529167;stroke-linecap:round;stroke-linejoin:round;stroke-miterlimit:4;stroke-dasharray:none;stroke-dashoffset:0;stroke-opacity:1;color-rendering:auto;image-rendering:auto;shape-rendering:auto;text-rendering:auto;enable-background:accumulate;stop-color:#000000"
           sodipodi:nodetypes="ccccssccccsccccscccsccscssccc" />
        <path
           id="path657"
           style="color:#000000;font-style:normal;font-variant:normal;font-weight:normal;font-stretch:normal;font-size:medium;line-height:normal;font-family:sans-serif;font-variant-ligatures:normal;font-variant-position:normal;font-variant-caps:normal;font-variant-numeric:normal;font-variant-alternates:normal;font-variant-east-asian:normal;font-feature-settings:normal;font-variation-settings:normal;text-indent:0;text-align:start;text-decoration:none;text-decoration-line:none;text-decoration-style:solid;text-decoration-color:#000000;letter-spacing:normal;word-spacing:normal;text-transform:none;writing-mode:lr-tb;direction:ltr;text-orientation:mixed;dominant-baseline:auto;baseline-shift:baseline;text-anchor:start;white-space:normal;shape-padding:0;shape-margin:0;inline-size:0;clip-rule:nonzero;display:inline;overflow:visible;visibility:visible;isolation:auto;mix-blend-mode:normal;color-interpolation:sRGB;color-interpolation-filters:linearRGB;solid-color:#000000;solid-opacity:1;vector-effect:none;fill:#b31e48;fill-opacity:1;fill-rule:nonzero;stroke:none;stroke-width:0.529167;stroke-linecap:round;stroke-linejoin:round;stroke-miterlimit:4;stroke-dasharray:none;stroke-dashoffset:0;stroke-opacity:1;color-rendering:auto;image-rendering:auto;shape-rendering:auto;text-rendering:auto;enable-background:accumulate;stop-color:#000000"
           d="m 73.971195,261.2126 c 0.256302,0.47843 0.475311,0.99458 0.544671,1.49397 0.02108,0.15175 0.02347,0.30479 0.0083,0.45423 0.143002,0.0114 0.2677,-0.003 0.364318,-0.0341 0.142772,-0.0457 0.229243,-0.12516 0.242361,-0.13694 0.407098,-0.33206 0.358444,-0.82216 0.289597,-1.31786 -0.06936,-0.49939 -0.28837,-1.01553 -0.544671,-1.49396 -0.512604,-0.95686 -1.033736,-1.78738 -1.033736,-1.78738 -0.04652,-0.0566 -0.114446,-0.0914 -0.187584,-0.0961 -0.0074,-3.1e-4 -0.01482,-3.1e-4 -0.02222,0 l -3.1e-5,4e-4 c -0.02099,8.6e-4 -0.04181,0.004 -0.06201,0.01 -2.698924,0.71757 -5.429771,0.67082 -8.203118,-0.002 -0.09806,-0.0237 -0.201075,0.0104 -0.265618,0.0879 0,0 -0.340637,0.41282 -0.719336,0.98702 2.322623,0.37369 4.698401,0.50404 6.777969,0.27073 0.827286,-0.0928 2.013829,0.20479 2.443055,0.91294 0.1429,0.23576 0.265909,0.46371 0.368053,0.6512 z"
           sodipodi:nodetypes="cscccsscccccccccccc" />
        <path
           id="path1545"
           style="color:#000000;font-style:normal;font-variant:normal;font-weight:normal;font-stretch:normal;font-size:medium;line-height:normal;font-family:sans-serif;font-variant-ligatures:normal;font-variant-position:normal;font-variant-caps:normal;font-variant-numeric:normal;font-variant-alternates:normal;font-variant-east-asian:normal;font-feature-settings:normal;font-variation-settings:normal;text-indent:0;text-align:start;text-decoration:none;text-decoration-line:none;text-decoration-style:solid;text-decoration-color:#000000;letter-spacing:normal;word-spacing:normal;text-transform:none;writing-mode:lr-tb;direction:ltr;text-orientation:mixed;dominant-baseline:auto;baseline-shift:baseline;text-anchor:start;white-space:normal;shape-padding:0;shape-margin:0;inline-size:0;clip-rule:nonzero;display:inline;overflow:visible;visibility:visible;opacity:1;isolation:auto;mix-blend-mode:normal;color-interpolation:sRGB;color-interpolation-filters:linearRGB;solid-color:#000000;solid-opacity:1;vector-effect:none;fill:#000000;fill-opacity:1;fill-rule:nonzero;stroke:none;stroke-width:0.529167;stroke-linecap:round;stroke-linejoin:round;stroke-miterlimit:4;stroke-dasharray:none;stroke-dashoffset:0;stroke-opacity:1;color-rendering:auto;image-rendering:auto;shape-rendering:auto;text-rendering:auto;enable-background:accumulate;stop-color:#000000;stop-opacity:1"
           d="m 72.127901,253.54114 c -0.227295,0.0203 -0.44603,0.075 -0.647507,0.1602 -0.134848,0.0569 -0.197834,0.21256 -0.14056,0.34726 0.05674,0.13534 0.212791,0.19864 0.347782,0.14108 0.193739,-0.0819 0.406466,-0.12919 0.63097,-0.12919 0.315331,0 0.606838,0.0896 0.855245,0.24443 0.123666,0.0765 0.285922,0.0389 0.363286,-0.0842 0.07795,-0.1241 0.04018,-0.28791 -0.08423,-0.36536 -0.217392,-0.13548 -0.462473,-0.22867 -0.722437,-0.27957 -0.155715,-0.39765 -0.425743,-0.73523 -0.770495,-0.97616 0.224959,-0.33995 0.358634,-0.74687 0.358634,-1.18339 0,-0.58608 -0.237789,-1.12016 -0.619601,-1.50792 -0.05105,-0.0525 -0.121595,-0.0815 -0.194821,-0.0801 -0.06672,0.002 -0.130212,0.0291 -0.177766,0.076 -0.10514,0.10229 -0.106994,0.27059 -0.0041,0.37518 0.288341,0.29281 0.466641,0.69235 0.466638,1.13688 0,0.34997 -0.114281,0.66804 -0.301789,0.93224 -0.235831,-0.0891 -0.490527,-0.13953 -0.756544,-0.13953 -0.146931,-5.3e-4 -0.26619,0.11869 -0.265615,0.26562 5.29e-4,0.14613 0.119488,0.26412 0.265615,0.26355 0.252526,0 0.488952,0.0584 0.752462,0.19096 0.263511,0.13254 0.490136,0.34866 0.644872,0.61209 z m -3.912942,-0.80305 c 0.14532,-5.3e-4 0.262986,-0.11823 0.263552,-0.26355 5.29e-4,-0.14613 -0.117425,-0.26505 -0.263552,-0.26562 -0.26579,0 -0.520877,0.05 -0.756541,0.13901 -0.187362,-0.26414 -0.302308,-0.5819 -0.302308,-0.93172 0,-0.44431 0.177004,-0.84409 0.465087,-1.13688 0.102045,-0.10377 0.101121,-0.27048 -0.0021,-0.37311 -0.04799,-0.0475 -0.112326,-0.0749 -0.179834,-0.0765 -0.0059,-2e-5 -0.01172,1.5e-4 -0.01757,5.3e-4 -0.067,0.003 -0.13054,0.0304 -0.177769,0.078 -0.381471,0.38771 -0.617016,0.92214 -0.617016,1.50792 0,0.43693 0.132247,0.84429 0.357084,1.18442 -0.344077,0.24129 -0.613444,0.57984 -0.768945,0.97721 -0.260136,0.0509 -0.505433,0.144 -0.722953,0.27956 -0.123698,0.0769 -0.162038,0.23922 -0.08578,0.36329 0.07692,0.12496 0.240851,0.16345 0.365353,0.0858 0.248407,-0.15482 0.539914,-0.24391 0.855244,-0.24391 0.224505,0 0.437232,0.0452 0.630968,0.12712 0.134991,0.0576 0.291042,-0.006 0.347784,-0.14107 0.05721,-0.13485 -0.006,-0.29052 -0.141075,-0.34727 -0.201785,-0.0853 -0.42036,-0.13896 -0.648023,-0.15865 0.153768,-0.26245 0.378476,-0.47819 0.64407,-0.61228 0.265594,-0.13409 0.502181,-0.19232 0.754292,-0.19232 h 2.7e-5 z m -4.497916,1.58802 c -0.146328,2.9e-4 -0.264637,0.11929 -0.264065,0.26561 5.29e-4,0.14552 0.118544,0.26327 0.264065,0.26355 2.347185,0 4.289284,1.69586 4.684985,3.9269 -0.979528,-0.0696 -1.963971,-0.22528 -2.953825,-0.46096 -0.09627,-0.11475 -0.15503,-0.25954 -0.15503,-0.42271 0,-0.17492 0.06705,-0.33135 0.176218,-0.44907 0.09129,0.0715 0.187246,0.13854 0.290423,0.19895 0.126177,0.0731 0.287734,0.0304 0.361217,-0.0956 0.07348,-0.12563 0.03169,-0.28703 -0.09354,-0.36122 -0.613156,-0.35901 -0.962287,-0.99442 -0.994254,-1.55701 -0.008,-0.14623 -0.133361,-0.25811 -0.279569,-0.24959 -0.146021,0.008 -0.257816,0.13304 -0.249598,0.27905 0.02809,0.49435 0.232254,0.99924 0.584978,1.41645 -0.201358,0.214 -0.325562,0.50262 -0.325562,0.81804 0,0.24433 0.07544,0.47249 0.202573,0.66249 -0.221236,0.28271 -0.677561,0.89398 -1.052134,1.59318 -0.256299,0.47843 -0.477377,0.9951 -0.546735,1.49449 -0.02453,0.17658 -0.02574,0.35492 0,0.5271 l -1.433504,2.62671 c -0.345554,0.63351 0.127934,1.42989 0.849561,1.42989 H 76.29302 c 0.721622,0 1.193043,-0.79638 0.847495,-1.42989 l -1.54926,-2.84014 c -0.0089,-0.63976 -0.298752,-1.3128 -0.561737,-1.80816 -0.374266,-0.69863 -0.83017,-1.30912 -1.051616,-1.59215 0.128149,-0.18992 0.203605,-0.41813 0.203605,-0.66352 0,-0.31539 -0.124751,-0.60405 -0.326594,-0.81804 0.352767,-0.41686 0.556345,-0.92163 0.58446,-1.41645 0.0082,-0.14544 -0.102643,-0.27018 -0.248047,-0.27905 -0.164664,-0.0157 -0.272055,0.11917 -0.279051,0.24959 -0.03197,0.56259 -0.381098,1.198 -0.994257,1.55701 -0.12597,0.0735 -0.16873,0.23505 -0.0956,0.36122 0.07425,0.12647 0.237194,0.16843 0.363284,0.0935 0.102534,-0.06 0.198138,-0.12652 0.288872,-0.19741 0.109614,0.11781 0.177765,0.27427 0.177765,0.44959 0,0.16443 -0.06168,0.31016 -0.159678,0.4253 -0.979673,0.2551 -1.963146,0.41059 -2.951759,0.47128 0.389658,-2.23822 2.335161,-3.93981 4.687568,-3.93981 0.146127,-5.8e-4 0.264123,-0.11949 0.263552,-0.26561 -5.29e-4,-0.14532 -0.118232,-0.26299 -0.263552,-0.26355 -2.647428,0 -4.840904,1.95058 -5.227069,4.49275 -0.352935,0.01 -0.70622,0.007 -1.060402,-0.006 -0.388684,-2.53914 -2.578688,-4.48654 -5.223971,-4.48654 h 6e-6 z m 12.265401,0.31264 c -0.02959,0.14297 0.06222,0.28288 0.205155,0.31264 0.156856,0.0327 0.334709,0.0811 0.515731,0.14056 0.138547,0.0456 0.28787,-0.0295 0.33383,-0.16795 0.04594,-0.1387 -0.02925,-0.28839 -0.167947,-0.33434 -0.197672,-0.0649 -0.393731,-0.11844 -0.574124,-0.15607 -0.157763,-0.0298 -0.282983,0.0437 -0.312645,0.20516 z m -13.332,-0.20514 c -0.180396,0.0376 -0.376452,0.0911 -0.574125,0.15606 -0.1387,0.046 -0.213889,0.19564 -0.167947,0.33434 0.04531,0.13905 0.194831,0.21497 0.333827,0.1695 0.181026,-0.0595 0.358879,-0.10784 0.515732,-0.14056 0.143668,-0.0297 0.235709,-0.17069 0.205155,-0.31419 -0.04264,-0.16854 -0.16723,-0.22608 -0.312642,-0.20515 z m 10.86135,4.408 c 0.07821,0.0955 0.603416,0.72798 1.050583,1.56269 0.239792,0.44761 0.433679,0.92262 0.488342,1.3162 0.0051,0.67145 -0.145225,0.94179 -0.638717,0.88522 -0.336998,-0.10369 -0.970225,-0.51824 -1.878958,-1.81643 -0.164054,-0.23482 -0.532251,-0.0779 -0.476456,0.20309 0.06567,0.38777 0.03346,0.69099 -0.08578,1.05058 -0.192059,0.26937 -0.389266,0.34012 -0.623216,0.29301 -0.200422,-0.0445 -0.536252,-0.23276 -0.91209,-0.98444 -0.13121,-0.25828 -0.522386,-0.14825 -0.499711,0.14056 -0.01368,0.31451 -0.16859,0.50484 -0.398425,0.50798 -0.267587,0 -0.357915,-0.11645 -0.435631,-0.25993 -0.07772,-0.14347 -0.09405,-0.29301 -0.09405,-0.29301 -0.02387,-0.2649 -0.37976,-0.33299 -0.499714,-0.0956 -0.375838,0.75168 -0.711668,0.9399 -0.912087,0.98444 -0.288989,0.0418 -0.461817,0.007 -0.623218,-0.29301 -0.151485,-0.34162 -0.136128,-0.67555 -0.08578,-1.05058 0.05718,-0.282 -0.313312,-0.43975 -0.476973,-0.20309 -0.90873,1.29819 -1.541444,1.71274 -1.878438,1.81643 -0.575546,0.15867 -0.686602,-0.51358 -0.638712,-0.88522 0.05466,-0.39358 0.248549,-0.86859 0.488341,-1.3162 0.447551,-0.83543 0.973196,-1.46975 1.050581,-1.56424 h -1e-5 c 1.054491,0.24512 2.106734,0.40005 2.968204,0.44572 0.86147,0.0457 1.304793,0.048 2.151825,0.0113 0.847031,-0.0367 1.906212,-0.18927 2.960098,-0.45544 z m -7.173723,2.84582 c 0.02011,0.19752 0.06139,0.40982 0.16795,0.60771 0.200377,0.42759 0.719463,0.68063 1.205095,0.55862 0.580591,-0.2117 0.699508,-0.48644 0.910021,-0.9064 0.238424,0.32918 0.589701,0.57438 0.916228,0.58188 0.442995,0 0.71078,-0.29148 0.820105,-0.54881 0.298421,0.38047 0.602594,0.81282 0.874882,0.87333 0.513213,0.0915 1.035985,-0.21655 1.205096,-0.55862 0.106558,-0.19789 0.147852,-0.41019 0.167947,-0.60771 0.670729,0.81566 1.234657,1.29571 1.650545,1.42368 0.623638,0.16833 0.836842,-0.0381 1.133266,-0.41496 l 1.286743,2.36058 c 0.164732,0.30201 -0.0389,0.64647 -0.382924,0.64647 H 62.783257 c -0.34402,1e-5 -0.549728,-0.34446 -0.38499,-0.64647 l 1.231966,-2.25671 c 0.265983,0.35039 0.652859,0.45404 1.057299,0.31109 0.41589,-0.12797 0.979815,-0.60802 1.650545,-1.42368 z"
           sodipodi:nodetypes="ccccscscccsccccsccscccccccscccccscccccsccccccccccccsccccccccscssccssccsccccccccccscccsccccccccccccccccccccccscccccccccccsscccsccscscccsccccsccsccscccccssc" />
      </g>
    </g>
  </g>
</svg>
